<?xml version="1.0" encoding="UTF-8"?>
<!DOCTYPE svg PUBLIC "-//W3C//DTD SVG 1.1//EN"
    "http://www.w3.org/Graphics/SVG/1.1/DTD/svg11.dtd"><svg xmlns="http://www.w3.org/2000/svg" height="150.0000" stroke-opacity="1" viewBox="0 0 150 150" font-size="1" width="150.0000" xmlns:xlink="http://www.w3.org/1999/xlink" stroke="rgb(0,0,0)" version="1.1"><defs></defs><g stroke-linejoin="miter" stroke-opacity="1.0" fill-opacity="1.0" stroke="rgb(0,0,0)" stroke-width="0.6" fill="rgb(0,0,255)" stroke-linecap="butt" stroke-miterlimit="10.0"><path d="M 150.0000,150.0000 l -0.0000,-150.0000 h -150.0000 l -0.0000,150.0000 Z"/></g><g stroke-linejoin="miter" stroke-opacity="1.0" fill-opacity="1.0" stroke="rgb(0,0,0)" stroke-width="0.0" fill="rgb(255,0,0)" stroke-linecap="butt" stroke-miterlimit="10.0"><path d="M 78.0000,75.0000 c 0.0000,-1.6569 -1.3431,-3.0000 -3.0000 -3.0000c -1.6569,-0.0000 -3.0000,1.3431 -3.0000 3.0000c -0.0000,1.6569 1.3431,3.0000 3.0000 3.0000c 1.6569,0.0000 3.0000,-1.3431 3.0000 -3.0000Z"/></g><g stroke-linejoin="miter" stroke-opacity="1.0" fill-opacity="1.0" stroke="rgb(0,0,0)" stroke-width="0.6" fill="rgb(165,42,42)" stroke-linecap="butt" stroke-miterlimit="10.0"><path d="M 150.0000,75.0000 c 0.0000,-41.4214 -33.5786,-75.0000 -75.0000 -75.0000c -41.4214,-0.0000 -75.0000,33.5786 -75.0000 75.0000c -0.0000,41.4214 33.5786,75.0000 75.0000 75.0000c 41.4214,0.0000 75.0000,-33.5786 75.0000 -75.0000Z"/></g><g stroke-linejoin="miter" stroke-opacity="1.0" fill-opacity="1.0" stroke="rgb(0,0,0)" stroke-width="0.0" fill="rgb(255,0,0)" stroke-linecap="butt" stroke-miterlimit="10.0"><path d="M 78.0000,75.0000 c 0.0000,-1.6569 -1.3431,-3.0000 -3.0000 -3.0000c -1.6569,-0.0000 -3.0000,1.3431 -3.0000 3.0000c -0.0000,1.6569 1.3431,3.0000 3.0000 3.0000c 1.6569,0.0000 3.0000,-1.3431 3.0000 -3.0000Z"/></g><g stroke-linejoin="miter" stroke-opacity="1.0" fill-opacity="0.0" stroke="rgb(0,0,0)" stroke-width="0.6" fill="rgb(0,0,0)" stroke-linecap="butt" stroke-miterlimit="10.0"><path d="M 112.5000,96.6506 l -37.5000,-64.9519 l -37.5000,64.9519 Z"/></g><g stroke-linejoin="miter" stroke-opacity="1.0" fill-opacity="1.0" stroke="rgb(0,0,0)" stroke-width="0.0" fill="rgb(255,0,0)" stroke-linecap="butt" stroke-miterlimit="10.0"><path d="M 76.5000,75.0000 c 0.0000,-0.8284 -0.6716,-1.5000 -1.5000 -1.5000c -0.8284,-0.0000 -1.5000,0.6716 -1.5000 1.5000c -0.0000,0.8284 0.6716,1.5000 1.5000 1.5000c 0.8284,0.0000 1.5000,-0.6716 1.5000 -1.5000Z"/></g></svg>