<?xml version="1.0" encoding="UTF-8"?>
<!DOCTYPE svg PUBLIC "-//W3C//DTD SVG 1.1//EN"
    "http://www.w3.org/Graphics/SVG/1.1/DTD/svg11.dtd"><svg xmlns="http://www.w3.org/2000/svg" height="150.0000" stroke-opacity="1" viewBox="0 0 150 150" font-size="1" width="150.0000" xmlns:xlink="http://www.w3.org/1999/xlink" stroke="rgb(0,0,0)" version="1.1"><defs></defs><g stroke-linejoin="miter" stroke-opacity="1.0" fill-opacity="0.0" stroke="rgb(0,0,0)" stroke-width="0.5196152422706632" fill="rgb(0,0,0)" stroke-linecap="butt" stroke-miterlimit="10.0"><path d="M 131.2500,48.3253 l -18.7500,-32.4760 l -18.7500,32.4760 Z"/></g><g stroke-linejoin="miter" stroke-opacity="1.0" fill-opacity="1.0" stroke="rgb(0,0,0)" stroke-width="0.0" fill="rgb(255,0,0)" stroke-linecap="butt" stroke-miterlimit="10.0"><path d="M 113.2500,37.5000 c 0.0000,-0.4142 -0.3358,-0.7500 -0.7500 -0.7500c -0.4142,-0.0000 -0.7500,0.3358 -0.7500 0.7500c -0.0000,0.4142 0.3358,0.7500 0.7500 0.7500c 0.4142,0.0000 0.7500,-0.3358 0.7500 -0.7500Z"/></g><g stroke-linejoin="miter" stroke-opacity="1.0" fill-opacity="1.0" stroke="rgb(0,0,0)" stroke-width="0.5196152422706632" fill="rgb(0,0,255)" stroke-linecap="butt" stroke-miterlimit="10.0"><path d="M 93.7500,150.0000 l -0.0000,-75.0000 h -75.0000 l -0.0000,75.0000 Z"/></g><g stroke-linejoin="miter" stroke-opacity="1.0" fill-opacity="1.0" stroke="rgb(0,0,0)" stroke-width="0.0" fill="rgb(255,0,0)" stroke-linecap="butt" stroke-miterlimit="10.0"><path d="M 57.7500,112.5000 c 0.0000,-0.8284 -0.6716,-1.5000 -1.5000 -1.5000c -0.8284,-0.0000 -1.5000,0.6716 -1.5000 1.5000c -0.0000,0.8284 0.6716,1.5000 1.5000 1.5000c 0.8284,0.0000 1.5000,-0.6716 1.5000 -1.5000Z"/></g><g stroke-linejoin="miter" stroke-opacity="1.0" fill-opacity="1.0" stroke="rgb(0,0,0)" stroke-width="0.5196152422706632" fill="rgb(165,42,42)" stroke-linecap="butt" stroke-miterlimit="10.0"><path d="M 93.7500,37.5000 c 0.0000,-20.7107 -16.7893,-37.5000 -37.5000 -37.5000c -20.7107,-0.0000 -37.5000,16.7893 -37.5000 37.5000c -0.0000,20.7107 16.7893,37.5000 37.5000 37.5000c 20.7107,0.0000 37.5000,-16.7893 37.5000 -37.5000Z"/></g><g stroke-linejoin="miter" stroke-opacity="1.0" fill-opacity="1.0" stroke="rgb(0,0,0)" stroke-width="0.0" fill="rgb(255,0,0)" stroke-linecap="butt" stroke-miterlimit="10.0"><path d="M 57.7500,37.5000 c 0.0000,-0.8284 -0.6716,-1.5000 -1.5000 -1.5000c -0.8284,-0.0000 -1.5000,0.6716 -1.5000 1.5000c -0.0000,0.8284 0.6716,1.5000 1.5000 1.5000c 0.8284,0.0000 1.5000,-0.6716 1.5000 -1.5000Z"/></g></svg>